<?xml version="1.0" encoding="utf-8"?>
<!-- Generator: Adobe Illustrator 15.1.0, SVG Export Plug-In . SVG Version: 6.00 Build 0)  -->
<!DOCTYPE svg PUBLIC "-//W3C//DTD SVG 1.1//EN" "http://www.w3.org/Graphics/SVG/1.1/DTD/svg11.dtd">
<svg version="1.1" id="Layer_1" xmlns="http://www.w3.org/2000/svg" xmlns:xlink="http://www.w3.org/1999/xlink" x="0px" y="0px"
	 width="4156px" height="1084px" viewBox="0 0 4156 1084" style="enable-background:new 0 0 4156 1084;" xml:space="preserve">
<style type="text/css">
<![CDATA[
	.st0{fill-rule:evenodd;clip-rule:evenodd;fill:#2D2B2B;}
]]>
</style>
<path class="st0" d="M944,372c-72.3,0-144.7,0-217,0c0-0.7,0-1.3,0-2c-5.3-16.3-10.7-32.7-16-49c-18-41.8-48.2-73.9-86-96
	c-60.7-35.6-170.9-32-235-3c-82.3,37.2-125.9,112.4-150,208c-7.2,28.5-5.9,56.7-11,89c-6.3,40.2-1.5,91.5,6,126
	c24.8,113.4,72.3,198.2,171,237c30.7,12.1,80.8,22.1,124,15c31.7-5.2,57.6-4.2,83-14c78.6-30.3,139.2-101.7,141-207
	c-76.3-0.3-152.7-0.7-229-1c0-56.3,0-112.7,0-169c145,0,290,0,435,0c0,186.3,0,372.7,0,559c-48.3,0-96.7,0-145,0
	c-7.7-38.7-15.3-77.3-23-116c-12.7,14.3-25.3,28.7-38,43c-43.5,35.4-84,64.3-146,83c-86.5,26.1-230.5,5.3-295-21
	C154.8,989.4,60.6,875.4,16,697C0.3,634-9.1,535.6,5,461c8.3-43.8,14.3-86.3,29-124C94.3,181.9,192.7,74.9,358,25
	c30-9,62.5-11.2,96-17c11.7-0.3,23.3-0.7,35-1c51.6-8.4,111.9,5.2,151,17c119.1,36,198.6,93.9,256,191
	C919.8,255.2,943.5,310.8,944,372z"/>
<path class="st0" d="M1073,31c68.7,0,137.3,0,206,0c0,344.6,0,689.4,0,1034c-68.7,0-137.3,0-206,0C1073,720.4,1073,375.6,1073,31z"
	/>
<g>
	<path class="st0" d="M4029,1c-33.7,15.1-57.5,22.4-68,60c-15.3,54.6,34.9,111.9,90,102C4151.1,145.1,4146.4-1.6,4029,1z M4049,151
		c-51.1,9.2-87.2-43.9-72-92c9.1-28.8,28.7-34.6,56-46C4127.2,11.1,4130,136.4,4049,151z"/>
	<path class="st0" d="M4076,77c9.8-14.5-0.3-35.5-11-40c-13.1-5.5-37.4-3.7-55-3c-0.3,31.7-0.7,63.3-1,95c5,0,10,0,15,0
		c0-13.3,0-26.7,0-40c5,0,10,0,15,0c8.7,13.3,17.3,26.7,26,40c5.3,0,10.7,0,16,0c-8.7-13.7-17.3-27.3-26-41
		C4062.9,84.5,4071.5,83.7,4076,77z M4024,76c0-9.7,0-19.3,0-29c13.3-0.1,26.7,0.2,36,3c2.9,4.8,4.3,8.3,4,17c-1.7,1.7-3.3,3.3-5,5
		C4052.9,77.7,4035.9,76.5,4024,76z"/>
</g>
<path class="st0" d="M3344,1065c-68.7,0-137.3,0-206,0c0-126.7,0-253.3,0-380c0-70.7,3.8-145.2-26-186c-20.3-27.8-48.5-34.2-91-41
	c-50.2-8-93.3,20.4-112,46c-34.7,47.5-34,123.6-34,207c0,118,0,236,0,354c-68.7,0-137.3,0-206,0c0-128,0-256,0-384
	c0-70.4,3.9-144.6-26-185c-20-27-48.3-31.5-90-38c-45.9-7.1-93.5,27.7-111,51c-39.6,52.8-36,117.3-36,210c0,115.3,0,230.7,0,346
	c-68.7,0-137.3,0-206,0c0-249.6,0-499.4,0-749c64.7,0,129.3,0,194,0c0,33.7,0,67.3,0,101c1.3,0,2.7,0,4,0c8.4-20.2,30.7-39.9,47-53
	c32.4-26,64.8-48.9,112-61c126.7-32.5,259.1,27,287,117c0.7-0.3,1.3-0.7,2-1c8-19.1,28.5-37.6,44-50c33.2-26.6,63.1-51,110-65
	c108.5-32.4,242.2,15,288,73c58.2,73.7,56,165.6,56,298C3344,805,3344,935,3344,1065z"/>
<path class="st0" d="M2103,537c-59.6-154-174.2-244.2-391-241c-14,1.3-28,2.7-42,4c-26.9,5.2-54.3,9.8-78,19
	c-102.2,39.9-172,107-212,209c-30.2,76.8-37.2,209.4-10,296c47.1,150.1,141.3,225.2,309,256c34.6,6.3,85.9,7.6,122,1
	c141.9-25.8,239.2-87.4,290-203c14.5-33,24-69,32-109C2138.4,692,2125.2,594.3,2103,537z M1905,812c-25.6,68.6-66.5,105.2-149,118
	c-170.1,26.4-229.7-191.5-185-344c16.4-56,48.1-101.6,99-123c16.5-7,37.2-4.8,56-12c110-0.6,161.8,53.8,185,139
	c7,25.8,5.5,51.1,10,81C1928.2,718.7,1918.2,776.7,1905,812z"/>
<path class="st0" d="M4154,741c15-55.4-10.3-156.9-23-196c-37.4-115.3-112.8-198.6-229-235c-26.7-8.4-53.2-7.7-85-13
	c-46.8-7.8-102.1,2-138,13c-132,40.3-216.2,130.2-256,263c-12.2,40.7-21.1,102.4-13,153c5.2,32.5,4.7,60.1,13,88
	c37.1,123.9,110.9,212.6,233,251c26.2,8.2,54.3,11.9,84,17c30.4,5.2,73.1,3.9,102-1c140.8-23.8,204.3-63.7,265-167
	c13.2-22.4,29.2-52.1,34-81c-60.3,0-120.7,0-181,0c-19.5,74.9-137.2,117.5-234,88c-71.2-21.7-112.2-86.6-111-180
	C3794.6,741,3974.4,741,4154,741z M3852,461c52.3,20.4,92,81.9,96,149c-111,0-222,0-333,0C3615.5,500.4,3732.1,414.1,3852,461z"/>
</svg>
